<svg width="123" height="48" viewBox="0 0 123 48" fill="none" xmlns="http://www.w3.org/2000/svg">
<path fill-rule="evenodd" clip-rule="evenodd" d="M32 0H0V32H16V48H48V16H32V0ZM32 16V32H16V16H32Z" fill="black"/>
<path d="M65.517 33V15.5455H69.2074V29.9574H76.6903V33H65.517ZM84.9808 33.2557C83.657 33.2557 82.5121 32.9744 81.5462 32.4119C80.5859 31.8437 79.8445 31.054 79.3217 30.0426C78.799 29.0256 78.5376 27.8466 78.5376 26.5057C78.5376 25.1534 78.799 23.9716 79.3217 22.9602C79.8445 21.9432 80.5859 21.1534 81.5462 20.5909C82.5121 20.0227 83.657 19.7386 84.9808 19.7386C86.3047 19.7386 87.4467 20.0227 88.407 20.5909C89.3729 21.1534 90.1172 21.9432 90.6399 22.9602C91.1626 23.9716 91.424 25.1534 91.424 26.5057C91.424 27.8466 91.1626 29.0256 90.6399 30.0426C90.1172 31.054 89.3729 31.8437 88.407 32.4119C87.4467 32.9744 86.3047 33.2557 84.9808 33.2557ZM84.9979 30.4432C85.6001 30.4432 86.103 30.2727 86.5064 29.9318C86.9098 29.5852 87.2138 29.1136 87.4183 28.517C87.6286 27.9205 87.7337 27.2415 87.7337 26.4801C87.7337 25.7188 87.6286 25.0398 87.4183 24.4432C87.2138 23.8466 86.9098 23.375 86.5064 23.0284C86.103 22.6818 85.6001 22.5085 84.9979 22.5085C84.3899 22.5085 83.8786 22.6818 83.4638 23.0284C83.0547 23.375 82.745 23.8466 82.5348 24.4432C82.3303 25.0398 82.228 25.7188 82.228 26.4801C82.228 27.2415 82.3303 27.9205 82.5348 28.517C82.745 29.1136 83.0547 29.5852 83.4638 29.9318C83.8786 30.2727 84.3899 30.4432 84.9979 30.4432ZM99.6825 38.1818C98.5064 38.1818 97.4979 38.0199 96.657 37.696C95.8217 37.3778 95.157 36.9432 94.6626 36.392C94.1683 35.8409 93.8473 35.2216 93.6996 34.5341L97.0575 34.0824C97.1598 34.3438 97.3217 34.5881 97.5433 34.8153C97.7649 35.0426 98.0575 35.2244 98.4212 35.3608C98.7905 35.5028 99.2393 35.5739 99.7678 35.5739C100.558 35.5739 101.208 35.3807 101.719 34.9943C102.237 34.6136 102.495 33.9744 102.495 33.0767V30.6818H102.342C102.183 31.0455 101.944 31.3892 101.626 31.7131C101.308 32.0369 100.898 32.3011 100.398 32.5057C99.8984 32.7102 99.3018 32.8125 98.6087 32.8125C97.6257 32.8125 96.7308 32.5852 95.924 32.1307C95.1229 31.6705 94.4837 30.9687 94.0064 30.0256C93.5348 29.0767 93.299 27.8778 93.299 26.429C93.299 24.946 93.5405 23.7074 94.0234 22.7131C94.5064 21.7187 95.1484 20.9744 95.9496 20.4801C96.7564 19.9858 97.6399 19.7386 98.6001 19.7386C99.3331 19.7386 99.9467 19.8636 100.441 20.1136C100.935 20.358 101.333 20.6648 101.634 21.0341C101.941 21.3977 102.177 21.7557 102.342 22.108H102.478V19.9091H106.083V33.1278C106.083 34.2415 105.81 35.1733 105.265 35.9233C104.719 36.6733 103.964 37.2358 102.998 37.6108C102.038 37.9915 100.933 38.1818 99.6825 38.1818ZM99.7592 30.0852C100.344 30.0852 100.839 29.9403 101.242 29.6506C101.651 29.3551 101.964 28.9347 102.18 28.3892C102.401 27.8381 102.512 27.179 102.512 26.4119C102.512 25.6449 102.404 24.9801 102.188 24.4176C101.972 23.8494 101.66 23.4091 101.251 23.0966C100.842 22.7841 100.344 22.6278 99.7592 22.6278C99.1626 22.6278 98.6598 22.7898 98.2507 23.1136C97.8416 23.4318 97.532 23.875 97.3217 24.4432C97.1115 25.0114 97.0064 25.6676 97.0064 26.4119C97.0064 27.1676 97.1115 27.821 97.3217 28.3722C97.5376 28.9176 97.8473 29.3409 98.2507 29.642C98.6598 29.9375 99.1626 30.0852 99.7592 30.0852ZM114.887 33.2557C113.563 33.2557 112.418 32.9744 111.452 32.4119C110.492 31.8437 109.751 31.054 109.228 30.0426C108.705 29.0256 108.444 27.8466 108.444 26.5057C108.444 25.1534 108.705 23.9716 109.228 22.9602C109.751 21.9432 110.492 21.1534 111.452 20.5909C112.418 20.0227 113.563 19.7386 114.887 19.7386C116.211 19.7386 117.353 20.0227 118.313 20.5909C119.279 21.1534 120.023 21.9432 120.546 22.9602C121.069 23.9716 121.33 25.1534 121.33 26.5057C121.33 27.8466 121.069 29.0256 120.546 30.0426C120.023 31.054 119.279 31.8437 118.313 32.4119C117.353 32.9744 116.211 33.2557 114.887 33.2557ZM114.904 30.4432C115.506 30.4432 116.009 30.2727 116.413 29.9318C116.816 29.5852 117.12 29.1136 117.325 28.517C117.535 27.9205 117.64 27.2415 117.64 26.4801C117.64 25.7188 117.535 25.0398 117.325 24.4432C117.12 23.8466 116.816 23.375 116.413 23.0284C116.009 22.6818 115.506 22.5085 114.904 22.5085C114.296 22.5085 113.785 22.6818 113.37 23.0284C112.961 23.375 112.651 23.8466 112.441 24.4432C112.237 25.0398 112.134 25.7188 112.134 26.4801C112.134 27.2415 112.237 27.9205 112.441 28.517C112.651 29.1136 112.961 29.5852 113.37 29.9318C113.785 30.2727 114.296 30.4432 114.904 30.4432Z" fill="black"/>
</svg>
